# xmcd CD database file
#
# Track frame offsets:
#	150
#	29229
#	42199
#	72834
#	100872
#	124430
#	138414
#	157172
#	175622
#	196699
#	225048
#
# Disc length: 3363 seconds
#
# Revision: 0
# Processed by: cddbd v1.5PL3 Copyright (c) Steve Scherf et al.
# Submitted via: CDex 1.50beta10
#
DISCID=900d210b
DTITLE=Reedstorm Saxophone Quartet - Reedstorm Saxophone Quartet
DYEAR=1995
DGENRE=Jazz
TTITLE0=Fourscore
TTITLE1=Junior Blue
TTITLE2=African Jump
TTITLE3=Reaching
TTITLE4=Don´t Get Nervous
TTITLE5=On Green Dolphin Street
TTITLE6=Barraneo
TTITLE7=Miyako
TTITLE8=O-Bump
TTITLE9=Flashfather´s Granddance
TTITLE10=Cuatro Latino
EXTD=YEAR: 1995
EXTT0=
EXTT1=
EXTT2=
EXTT3=
EXTT4=
EXTT5=
EXTT6=
EXTT7=
EXTT8=
EXTT9=
EXTT10=
PLAYORDER=
